<svg width="25" height="25" viewBox="0 0 25 25" fill="none" xmlns="http://www.w3.org/2000/svg">
<path d="M20.3626 5.81222H17.631C16.5855 5.81222 15.6919 6.18318 14.9499 6.9251C14.2417 7.66702 13.8876 8.56069 13.8876 9.60613V12.2872H11.7125V15.5246H13.8876V23.0619H17.1251V15.5246H20.3626V12.2872H17.1251V10.112C17.1251 9.84219 17.2263 9.60613 17.4286 9.40379C17.631 9.16772 17.8839 9.04969 18.1874 9.04969H20.3626V5.81222ZM2.00006 2.51245C2.00006 1.96016 2.44778 1.51245 3.00006 1.51245H22.6001C23.1523 1.51245 23.6001 1.96017 23.6001 2.51245V22.0619C23.6001 22.6142 23.1523 23.0619 22.6001 23.0619H3.00006C2.44778 23.0619 2.00006 22.6141 2.00006 22.0619V2.51245Z" fill="white"/>
</svg>
