<svg width="13" height="10" viewBox="0 0 13 10" fill="none" xmlns="http://www.w3.org/2000/svg">
<path d="M8.037 0.622077C8.0684 0.545846 8.11816 0.478561 8.18186 0.426215C8.24555 0.373868 8.3212 0.338084 8.40207 0.322049C8.48294 0.306013 8.56652 0.310224 8.64537 0.334306C8.72422 0.358388 8.79589 0.401594 8.854 0.460077L12.854 4.46008C12.9006 4.50652 12.9375 4.5617 12.9627 4.62244C12.9879 4.68319 13.0009 4.74831 13.0009 4.81408C13.0009 4.87984 12.9879 4.94497 12.9627 5.00571C12.9375 5.06646 12.9006 5.12163 12.854 5.16808L8.854 9.16808C8.76011 9.26196 8.63278 9.31471 8.5 9.31471C8.36722 9.31471 8.23989 9.26196 8.146 9.16808C8.05211 9.07419 7.99937 8.94685 7.99937 8.81408C7.99937 8.6813 8.05211 8.55396 8.146 8.46008L11.293 5.31408H0.5C0.367392 5.31408 0.240215 5.2614 0.146447 5.16763C0.0526784 5.07386 0 4.94669 0 4.81408C0 4.68147 0.0526784 4.55429 0.146447 4.46052C0.240215 4.36676 0.367392 4.31408 0.5 4.31408H11.293L8.146 1.16808C8.07575 1.09813 8.02788 1.00887 8.00847 0.911653C7.98906 0.814434 7.99899 0.71364 8.037 0.622077Z" fill="#48523F"/>
</svg>
