<svg width="24" height="25" viewBox="0 0 24 25" fill="none" xmlns="http://www.w3.org/2000/svg">
<path d="M20.5742 8.26283C20.5742 8.46517 20.5742 8.65065 20.5742 8.81927C20.5742 10.3368 20.2876 11.8375 19.7143 13.3214C19.1747 14.7715 18.3822 16.1036 17.3368 17.3176C16.3251 18.5317 14.993 19.5265 13.3405 20.3022C11.7218 21.0441 9.93444 21.4151 7.97847 21.4151C5.51664 21.4151 3.25715 20.7574 1.20001 19.4422C1.53725 19.4759 1.89135 19.4928 2.26231 19.4928C4.31945 19.4928 6.15739 18.8689 7.77612 17.6211C6.79814 17.5874 5.92132 17.2839 5.14568 16.7106C4.40376 16.1373 3.8979 15.4122 3.62811 14.5354C3.8979 14.6029 4.16769 14.6366 4.43748 14.6366C4.84217 14.6366 5.22999 14.5692 5.60095 14.4343C4.58924 14.2319 3.74615 13.7261 3.07167 12.9167C2.3972 12.1073 2.05997 11.1799 2.05997 10.1345C2.05997 10.1008 2.05997 10.0839 2.05997 10.0839C2.70071 10.4211 3.37519 10.6066 4.08338 10.6403C2.76816 9.72981 2.11055 8.49889 2.11055 6.9476C2.11055 6.13824 2.31289 5.39632 2.71758 4.72184C3.83046 6.07079 5.16254 7.14995 6.71383 7.95931C8.29884 8.76868 10.0019 9.22395 11.823 9.32512C11.7555 8.98789 11.7218 8.65065 11.7218 8.31341C11.7218 7.09936 12.1433 6.07079 12.9864 5.2277C13.8632 4.35088 14.9087 3.91248 16.1227 3.91248C17.4042 3.91248 18.4834 4.36774 19.3602 5.27828C20.3719 5.07594 21.3162 4.72184 22.193 4.21599C21.8557 5.26142 21.1981 6.07079 20.2201 6.64409C21.1307 6.54292 21.9906 6.32372 22.8 5.98648C22.193 6.8633 21.4511 7.62208 20.5742 8.26283Z" fill="white"/>
</svg>
