<svg width="25" height="25" viewBox="0 0 25 25" fill="none" xmlns="http://www.w3.org/2000/svg">
<path d="M12.6 3.45844C15.4837 3.45844 15.8253 3.46941 16.9641 3.52137C18.0171 3.56943 18.5889 3.74537 18.9695 3.89323C19.4736 4.08915 19.8334 4.32322 20.2113 4.70113C20.5892 5.07903 20.8233 5.43885 21.0192 5.94292C21.1671 6.32353 21.343 6.89538 21.3911 7.94832C21.443 9.08718 21.454 9.42873 21.454 12.3125C21.454 15.1962 21.443 15.5378 21.3911 16.6766C21.343 17.7296 21.1671 18.3014 21.0192 18.682C20.8233 19.1861 20.5892 19.5459 20.2113 19.9238C19.8334 20.3017 19.4736 20.5358 18.9695 20.7317C18.5889 20.8796 18.0171 21.0555 16.9641 21.1036C15.8254 21.1555 15.4839 21.1665 12.6 21.1665C9.71606 21.1665 9.37451 21.1555 8.23586 21.1036C7.18287 21.0555 6.61102 20.8796 6.23046 20.7317C5.72634 20.5358 5.36653 20.3017 4.98862 19.9238C4.61072 19.5459 4.37664 19.1861 4.18077 18.682C4.03286 18.3014 3.85692 17.7296 3.80886 16.6766C3.75691 15.5378 3.74593 15.1962 3.74593 12.3125C3.74593 9.42873 3.75691 9.08718 3.80886 7.94837C3.85692 6.89538 4.03286 6.32353 4.18077 5.94292C4.37664 5.43885 4.61072 5.07903 4.98862 4.70113C5.36653 4.32322 5.72634 4.08915 6.23046 3.89323C6.61102 3.74537 7.18287 3.56943 8.23582 3.52137C9.37468 3.46941 9.71623 3.45844 12.6 3.45844ZM12.6 1.51245C9.66684 1.51245 9.2991 1.52488 8.14716 1.57744C6.99758 1.62992 6.21254 1.81246 5.52553 2.07946C4.81534 2.35546 4.21305 2.72475 3.61265 3.32515C3.01224 3.92555 2.64295 4.52785 2.36695 5.23804C2.09995 5.92504 1.91741 6.71009 1.86494 7.85967C1.81238 9.01156 1.79999 9.37935 1.79999 12.3125C1.79999 15.2456 1.81238 15.6134 1.86494 16.7653C1.91741 17.9149 2.09995 18.6999 2.36695 19.3869C2.64295 20.0971 3.01224 20.6994 3.61265 21.2998C4.21305 21.9002 4.81534 22.2695 5.52553 22.5455C6.21254 22.8125 6.99758 22.995 8.14716 23.0475C9.2991 23.1001 9.66684 23.1124 12.6 23.1124C15.5331 23.1124 15.9009 23.1001 17.0528 23.0475C18.2023 22.995 18.9874 22.8125 19.6744 22.5455C20.3846 22.2695 20.9869 21.9002 21.5873 21.2998C22.1877 20.6994 22.557 20.0971 22.833 19.3869C23.1 18.6999 23.2825 17.9149 23.335 16.7653C23.3876 15.6134 23.4 15.2456 23.4 12.3125C23.4 9.37935 23.3876 9.01156 23.335 7.85967C23.2825 6.71009 23.1 5.92504 22.833 5.23804C22.557 4.52785 22.1877 3.92555 21.5873 3.32515C20.9869 2.72475 20.3846 2.35546 19.6744 2.07946C18.9874 1.81246 18.2023 1.62992 17.0528 1.57744C15.9009 1.52488 15.5331 1.51245 12.6 1.51245ZM12.6 6.76651C9.53703 6.76651 7.054 9.24954 7.054 12.3125C7.054 15.3754 9.53703 17.8584 12.6 17.8584C15.6629 17.8584 18.1459 15.3754 18.1459 12.3125C18.1459 9.24954 15.6629 6.76651 12.6 6.76651ZM12.6 15.9125C10.6118 15.9125 8.99994 14.3007 8.99994 12.3125C8.99994 10.3243 10.6118 8.71245 12.6 8.71245C14.5882 8.71245 16.2 10.3243 16.2 12.3125C16.2 14.3007 14.5882 15.9125 12.6 15.9125ZM19.661 6.5474C19.661 7.26316 19.0808 7.84342 18.365 7.84342C17.6493 7.84342 17.069 7.26316 17.069 6.5474C17.069 5.83163 17.6493 5.25142 18.365 5.25142C19.0808 5.25142 19.661 5.83163 19.661 6.5474Z" fill="white"/>
</svg>
